<?xml version="1.0" standalone="no"?><!DOCTYPE svg PUBLIC "-//W3C//DTD SVG 1.1//EN" "http://www.w3.org/Graphics/SVG/1.1/DTD/svg11.dtd"><svg t="1600350938017" class="icon" viewBox="0 0 1024 1024" version="1.1" xmlns="http://www.w3.org/2000/svg" p-id="3281" width="64" height="64" xmlns:xlink="http://www.w3.org/1999/xlink"><defs><style type="text/css"></style></defs><path d="M1024 512C1024 230.4 793.6 0 512 0S0 230.4 0 512s230.4 512 512 512 512-230.4 512-512zM512 61.44c248.32 0 450.56 202.24 450.56 450.56 0 107.52-38.4 207.36-102.4 284.16-10.24 12.8-20.48 23.04-30.72 33.28L209.92 179.2l2.56-2.56c79.36-71.68 184.32-115.2 299.52-115.2zM61.44 512c0-107.52 38.4-207.36 102.4-284.16l616.96 645.12c-74.24 56.32-168.96 89.6-268.8 89.6-248.32 0-450.56-202.24-450.56-450.56z m0 0" p-id="3282" fill="#cdcdcd"></path></svg>