<?xml version="1.0" standalone="no"?><!DOCTYPE svg PUBLIC "-//W3C//DTD SVG 1.1//EN" "http://www.w3.org/Graphics/SVG/1.1/DTD/svg11.dtd"><svg t="1560176319544" class="icon" style="" viewBox="0 0 1024 1024" version="1.1" xmlns="http://www.w3.org/2000/svg" p-id="2909" xmlns:xlink="http://www.w3.org/1999/xlink" width="64" height="64"><defs><style type="text/css"></style></defs><path d="M811.86816 199.10656a20.6848 20.6848 0 0 0-7.82336-1.57696H575.54944a20.48 20.48 0 1 0 0 40.96h179.05664L444.416 548.67968a20.45952 20.45952 0 1 0 28.95872 28.95872L783.5648 267.4688v179.05664a20.48 20.48 0 1 0 40.96 0V218.03008a20.5824 20.5824 0 0 0-12.65664-18.92352z" fill="#333333" p-id="2910"></path><path d="M804.0448 573.1328a20.48 20.48 0 0 0-20.48 20.48v218.3168h-573.44v-573.44h218.78784a20.48 20.48 0 1 0 0-40.96H189.6448a20.48 20.48 0 0 0-20.48 20.48v614.4a20.48 20.48 0 0 0 20.48 20.48h614.4a20.48 20.48 0 0 0 20.48-20.48v-238.7968a20.48 20.48 0 0 0-20.48-20.48z" fill="#333333" p-id="2911"></path></svg>